<svg xmlns="http://www.w3.org/2000/svg" width="97.676" height="97.676" viewBox="0 0 97.676 97.676">
  <g id="criminal" transform="translate(-1 -1)">
    <circle id="Ellipse_4" data-name="Ellipse 4" cx="1.609" cy="1.609" r="1.609" transform="translate(60.567 29.453)" fill="#523a28"/>
    <circle id="Ellipse_5" data-name="Ellipse 5" cx="1.609" cy="1.609" r="1.609" transform="translate(73.442 29.453)" fill="#523a28"/>
    <path id="Path_14" data-name="Path 14" d="M43.258,30.754a8.2,8.2,0,0,0,5.84-2.418l.08-.08.079.079a8.259,8.259,0,0,0,14.1-5.84V19.726A4.732,4.732,0,0,0,58.631,15H39.726A4.732,4.732,0,0,0,35,19.726v2.768a8.269,8.269,0,0,0,8.258,8.26ZM38.151,19.726a1.577,1.577,0,0,1,1.575-1.575H58.631a1.577,1.577,0,0,1,1.575,1.575v2.768a5.108,5.108,0,0,1-8.72,3.612L49.179,23.8l-2.31,2.306a5.062,5.062,0,0,1-3.611,1.5,5.114,5.114,0,0,1-5.108-5.109Z" transform="translate(19.564 8.056)" fill="#523a28"/>
    <path id="Path_15" data-name="Path 15" d="M89.224,52.211V29.358A18.921,18.921,0,0,0,76.707,11.587l.818-1.227A3.993,3.993,0,0,0,74.2,4.151h-.93A4.374,4.374,0,0,0,69.088,1H68.4a4.374,4.374,0,0,0-4.184,3.151h-.929a3.993,3.993,0,0,0-3.323,6.209l.818,1.227A18.945,18.945,0,0,0,48.609,25.8,18.885,18.885,0,0,0,13.6,35.659V47.93a7.86,7.86,0,0,1-3.508,6.554L8.2,55.747A9.1,9.1,0,0,0,5.679,68.362l.9,1.349A4.289,4.289,0,0,1,7.3,72.1a4.325,4.325,0,0,1-1.728,3.45l-.329.249A10.61,10.61,0,0,0,8.253,94.353l3.275,1.092,1-2.989L9.25,91.364A7.458,7.458,0,0,1,7.138,78.32l.329-.249A7.5,7.5,0,0,0,10.453,72.1,7.429,7.429,0,0,0,9.2,67.962l-.9-1.349A5.944,5.944,0,0,1,9.95,58.369l1.894-1.263a11,11,0,0,0,4.911-9.175V35.659a15.754,15.754,0,0,1,31.508,0V52.5L44.02,58.624l-5.708-3.905a12.7,12.7,0,0,0,6.8-11.182V36.612A20.28,20.28,0,0,0,41.7,25.332l-2.621,1.747a17.146,17.146,0,0,1,2.886,9.533v6.924a9.493,9.493,0,0,1-6.787,9.037L23.056,44.282V37.05a4.719,4.719,0,0,1,3.233-4.484l.417-.139-1-2.989-.417.139a7.866,7.866,0,0,0-5.386,7.472v8.061A19.817,19.817,0,0,0,25.6,58.961l-3.8,2.85A20.48,20.48,0,0,0,34.084,98.676H86.674a4.126,4.126,0,0,0,3.69-5.969l-.641-1.281a4.741,4.741,0,0,1-.5-2.114V87.728a16.221,16.221,0,0,0,9.453-14.716V70.651a22.732,22.732,0,0,0-9.453-18.44Zm-37.81-2.625a32.957,32.957,0,0,0,3.151,1.749V54.09c-.77-.421-1.53-.863-2.265-1.355l-.885-.589Zm6.3,3.053a32.667,32.667,0,0,0,3.151.952v3.045a29.7,29.7,0,0,1-3.151-1.057Zm6.3,1.582c1.041.151,2.094.235,3.151.285v3.151a29.129,29.129,0,0,1-3.151-.331Zm6.3.285c1.057-.05,2.109-.135,3.151-.285v3.107a29.945,29.945,0,0,1-3.151.331Zm6.3-.917a32.229,32.229,0,0,0,3.151-.952v2.94a29.349,29.349,0,0,1-3.151,1.057Zm6.3-2.254a32.955,32.955,0,0,0,3.151-1.749v2.56l-.887.591c-.736.49-1.5.934-2.265,1.355V51.335ZM75.045,8.145a.842.842,0,0,1-.142.468l-1.418,2.127c-.391-.066-.778-.139-1.175-.18L73.124,7.3H74.2A.844.844,0,0,1,75.045,8.145ZM68.4,4.151h.69a1.232,1.232,0,0,1,1.23,1.23,1.328,1.328,0,0,1-.035.3L69.09,10.453H68.4L67.2,5.682a1.289,1.289,0,0,1-.036-.3,1.232,1.232,0,0,1,1.23-1.23ZM62.583,8.612a.843.843,0,0,1,.7-1.311h1.078l.814,3.258c-.4.043-.786.113-1.177.18ZM51.413,29.358A15.772,15.772,0,0,1,67.168,13.6h3.151A15.772,15.772,0,0,1,86.073,29.358V45.844l-.887.591a29.646,29.646,0,0,1-32.887,0l-.885-.591ZM48.263,58.032v3.5L46.621,60.4ZM50.739,74.9a3.868,3.868,0,0,1-2.477-3.6v-.295a3.847,3.847,0,0,1,5.062-3.649l3.215,1.071-2.847,7.59ZM45.3,69.45l-3.321-2.344,2.847-4.112,3.313,2.267A7.005,7.005,0,0,0,45.3,69.45Zm-5.9-4.162-9.295-6.56A16.664,16.664,0,0,1,23.4,48.333L42.226,61.216ZM29.358,62.054l6.191,4.37a3.893,3.893,0,0,1-2.253.744,3.943,3.943,0,0,1-3.939-3.939ZM16.754,78.2a17.415,17.415,0,0,1,6.93-13.864l2.522-1.891v.788a7.075,7.075,0,0,0,10.232,6.346l-2.075,3,2.592,1.794,3.233-4.67L45.439,73.4a7.06,7.06,0,0,0,3.286,4.022,6.028,6.028,0,0,0-1.3.963l-4.807,4.805a9.837,9.837,0,0,1-13.909,0L24.17,78.657l-2.228,2.228,4.4,4.4L21.525,90.1A17.257,17.257,0,0,1,16.754,78.2Zm18.905,17.33H34.084A17.217,17.217,0,0,1,23.9,92.185l4.92-4.92A12.963,12.963,0,0,0,44.841,85.42l4.807-4.807a2.881,2.881,0,0,1,4.917,2.039,2.864,2.864,0,0,1-.843,2.037L47.96,90.451A17.221,17.221,0,0,1,35.7,95.525Zm14.529-2.848,1.226-1.226v4.074H46.6A20.556,20.556,0,0,0,50.188,92.677Zm36.715.158.641,1.281a.962.962,0,0,1,.1.436.974.974,0,0,1-.974.974H54.564V88.3l1.385-1.385a5.87,5.87,0,0,0,1.448-6.1l19.3,7.351a16.029,16.029,0,0,0,9.378.643v.506a7.953,7.953,0,0,0,.83,3.524Zm8.622-19.824A13.06,13.06,0,0,1,77.816,85.217L56.639,77.149l2.894-7.715,20.48,6.826a7,7,0,0,0,9.21-6.637V67.168H86.073v2.456a3.847,3.847,0,0,1-5.062,3.649L54.325,64.378a6.98,6.98,0,0,0-2.217-.361c-.061,0-.12.017-.181.019l-.514-.353v-7.77a32.794,32.794,0,0,0,35.521-.555l.657-.438a19.583,19.583,0,0,1,7.934,15.731Z" fill="#523a28"/>
    <path id="Path_16" data-name="Path 16" d="M18.521,31.822l4.265-4.265-4.265-4.265-2.228,2.228,2.037,2.037-2.037,2.037Z" transform="translate(8.8 12.828)" fill="#523a28"/>
    <path id="Path_17" data-name="Path 17" d="M25.851,23.293l-4.265,4.265,4.265,4.265,2.228-2.228-2.037-2.037,2.037-2.037Z" transform="translate(11.846 12.828)" fill="#523a28"/>
    <path id="Path_18" data-name="Path 18" d="M23.521,16.293l-2.228,2.228.923.923a5.993,5.993,0,0,1,1.766,4.265h3.151a9.117,9.117,0,0,0-2.689-6.492Z" transform="translate(11.677 8.8)" fill="#523a28"/>
    <path id="Path_19" data-name="Path 19" d="M20.444,17.216l-.923-.923-2.228,2.228.923.923a5.993,5.993,0,0,1,1.766,4.265h3.151A9.117,9.117,0,0,0,20.444,17.216Z" transform="translate(9.375 8.8)" fill="#523a28"/>
  </g>
</svg>
