<svg xmlns="http://www.w3.org/2000/svg" width="98.81" height="94.358" viewBox="0 0 98.81 94.358">
  <g id="broken" transform="translate(0 -11.536)">
    <path id="Path_12" data-name="Path 12" d="M96.748,63.933,90.112,57.3a1.93,1.93,0,0,0-2.729,2.729l6.636,6.636a3.2,3.2,0,0,1-4.53,4.53L65.219,46.918l4.608-4.447,5.3,5.3a1.93,1.93,0,0,0,2.729-2.729L72.605,39.79l.37-.357a16.233,16.233,0,0,0-22.547-23.36L49.4,17.06l-1.023-.985A16.231,16.231,0,0,0,25.837,39.432l.368.355L2.059,63.935a7.063,7.063,0,0,0,8.5,11.124v25.218a5.623,5.623,0,0,0,5.617,5.617H82.637a5.623,5.623,0,0,0,5.617-5.617V75.059a7.063,7.063,0,0,0,8.494-11.126ZM24.754,27.973A12.314,12.314,0,0,1,36.889,15.4l.225,0A12.283,12.283,0,0,1,45.7,18.853l2.363,2.276h0l2.241,2.165-5.925,5.718a1.93,1.93,0,0,0-.006,2.771l5.883,5.728-5.882,5.724A1.93,1.93,0,1,0,47.068,46l7.3-7.106a1.93,1.93,0,0,0,0-2.766L48.5,30.407l5.931-5.724a1.929,1.929,0,0,0,0-2.777l-2.242-2.166.923-.889A12.373,12.373,0,1,1,70.3,36.655L49.4,56.817,28.517,36.654a12.277,12.277,0,0,1-3.763-8.682ZM4.8,71.193a3.211,3.211,0,0,1-.005-4.53L28.983,42.469l4.61,4.45L9.322,71.191a3.208,3.208,0,0,1-4.526,0ZM34.185,78.9a4.326,4.326,0,1,1,4.323-4.323A4.331,4.331,0,0,1,34.185,78.9ZM29.309,81.15a8.169,8.169,0,0,0,9.751,0,5.158,5.158,0,0,1,3.01,5.046v15.839H26.3V86.2a5.158,5.158,0,0,1,3.013-5.045ZM64.628,78.9a4.326,4.326,0,1,1,4.323-4.323A4.331,4.331,0,0,1,64.628,78.9ZM59.752,81.15a8.169,8.169,0,0,0,9.751,0A5.159,5.159,0,0,1,72.518,86.2v15.839H56.739V86.2a5.158,5.158,0,0,1,3.013-5.045Zm22.885,20.884H76.377V86.2A8.817,8.817,0,0,0,72,78.133a8.186,8.186,0,1,0-14.745,0,8.816,8.816,0,0,0-4.375,8.06v15.839h-6.95V86.2a8.816,8.816,0,0,0-4.374-8.062,8.186,8.186,0,1,0-14.745,0,8.816,8.816,0,0,0-4.375,8.06v15.839H16.171a1.759,1.759,0,0,1-1.757-1.757V71.557L36.371,49.6,48.064,60.887a1.929,1.929,0,0,0,2.68,0L62.442,49.6,84.394,71.556v28.72a1.759,1.759,0,0,1-1.757,1.757Z" fill="#523a28"/>
    <g id="Group_27" data-name="Group 27" transform="translate(80.685 50.6)">
      <path id="Path_13" data-name="Path 13" d="M420.014,217.818a1.912,1.912,0,0,1-1.357-.563l-.011-.011a1.923,1.923,0,1,1,1.368.574Z" transform="translate(-418.081 -213.95)" fill="#523a28"/>
    </g>
  </g>
</svg>
