<svg id="relationship" xmlns="http://www.w3.org/2000/svg" width="118" height="118" viewBox="0 0 118 118">
  <g id="Group_29" data-name="Group 29" transform="translate(37.336)">
    <g id="Group_28" data-name="Group 28">
      <path id="Path_20" data-name="Path 20" d="M208.7,60.41,196.426,39.159a21.567,21.567,0,1,0-3.988,2.311L204.7,62.715a2.3,2.3,0,1,0,3.992-2.3ZM168.672,29.788a17.055,17.055,0,1,1,29.984,0,8.321,8.321,0,0,0-5.7-4.051l-.716-.133a8.849,8.849,0,0,0,.293-2.26V21.291a8.87,8.87,0,1,0-17.74,0v2.054a8.847,8.847,0,0,0,.293,2.26l-.716.133A8.322,8.322,0,0,0,168.672,29.788Zm19.252-8.5v2.054a4.26,4.26,0,1,1-8.521,0V21.291a4.26,4.26,0,1,1,8.521,0Zm7.222,12.972a17.022,17.022,0,0,1-22.964,0v-.34a3.717,3.717,0,0,1,3.034-3.653l2.4-.447a8.847,8.847,0,0,0,12.1,0l2.4.447a3.717,3.717,0,0,1,3.034,3.653Z" transform="translate(-162)" fill="#523a28"/>
    </g>
  </g>
  <g id="Group_31" data-name="Group 31" transform="translate(58.001 74.672)">
    <g id="Group_30" data-name="Group 30">
      <path id="Path_21" data-name="Path 21" d="M290,324a21.7,21.7,0,0,0-21.541,19.359H253.972a2.3,2.3,0,0,0,0,4.609H268.46A21.664,21.664,0,1,0,290,324Zm11.481,34.264a17.022,17.022,0,0,1-22.964,0v-.34a3.717,3.717,0,0,1,3.034-3.653l2.4-.447a8.847,8.847,0,0,0,12.1,0l2.4.447a3.717,3.717,0,0,1,3.034,3.653ZM285.74,347.345v-2.054a4.26,4.26,0,1,1,8.521,0v2.054a4.26,4.26,0,0,1-8.521,0Zm19.253,6.444a8.321,8.321,0,0,0-5.7-4.051l-.716-.133a8.849,8.849,0,0,0,.293-2.26v-2.054a8.87,8.87,0,0,0-17.74,0v2.054a8.848,8.848,0,0,0,.293,2.26l-.716.133a8.322,8.322,0,0,0-5.7,4.05,17.055,17.055,0,1,1,29.984,0Z" transform="translate(-251.667 -324)" fill="#523a28"/>
    </g>
  </g>
  <g id="Group_33" data-name="Group 33" transform="translate(0 52.891)">
    <g id="Group_32" data-name="Group 32">
      <path id="Path_22" data-name="Path 22" d="M30.076,252.973l11.561-20.024a2.3,2.3,0,0,0-3.992-2.3L25.535,251.62a21.675,21.675,0,1,0,4.541,1.353Zm3.07,32.564a17.022,17.022,0,0,1-22.964,0v-.34a3.717,3.717,0,0,1,3.034-3.653l2.4-.447a8.847,8.847,0,0,0,12.1,0l2.4.447a3.717,3.717,0,0,1,3.034,3.653ZM17.4,274.618v-2.054a4.26,4.26,0,0,1,8.521,0v2.054a4.26,4.26,0,0,1-8.521,0Zm19.253,6.444a8.321,8.321,0,0,0-5.7-4.051l-.716-.133a8.849,8.849,0,0,0,.293-2.26v-2.054a8.87,8.87,0,0,0-17.74,0v2.054a8.848,8.848,0,0,0,.293,2.26l-.716.133a8.322,8.322,0,0,0-5.7,4.05,17.055,17.055,0,1,1,29.984,0Z" transform="translate(0 -229.492)" fill="#523a28"/>
    </g>
  </g>
  <g id="Group_35" data-name="Group 35" transform="translate(49.244 94.031)">
    <g id="Group_34" data-name="Group 34">
      <path id="Path_23" data-name="Path 23" d="M217.6,408.675a2.3,2.3,0,1,0,.675,1.629A2.322,2.322,0,0,0,217.6,408.675Z" transform="translate(-213.67 -408)" fill="#523a28"/>
    </g>
  </g>
  <g id="Group_37" data-name="Group 37" transform="translate(83.584 66.566)">
    <g id="Group_36" data-name="Group 36">
      <path id="Path_24" data-name="Path 24" d="M366.6,289.505a2.3,2.3,0,1,0,.675,1.629A2.318,2.318,0,0,0,366.6,289.505Z" transform="translate(-362.67 -288.83)" fill="#523a28"/>
    </g>
  </g>
  <g id="Group_39" data-name="Group 39" transform="translate(41.768 45.213)">
    <g id="Group_38" data-name="Group 38">
      <path id="Path_25" data-name="Path 25" d="M185.163,196.855a2.3,2.3,0,1,0,.675,1.632A2.322,2.322,0,0,0,185.163,196.855Z" transform="translate(-181.229 -196.18)" fill="#523a28"/>
    </g>
  </g>
</svg>
