<svg id="Group_14" data-name="Group 14" xmlns="http://www.w3.org/2000/svg" width="96.726" height="88.633" viewBox="0 0 96.726 88.633">
  <g id="Group_13" data-name="Group 13" transform="translate(0 0)">
    <path id="Path_7" data-name="Path 7" d="M92.783,80.2l-11.1-4.44a1.857,1.857,0,0,1-.172-.084c7.667-1.744,11.3-4.662,11.459-4.794a1.417,1.417,0,0,0,.5-1.3,183.557,183.557,0,0,1-1.6-22.463,19.224,19.224,0,1,0-38.448,0c0,2.9-.132,6.457-.346,9.82l-3.093,1.547L40.9,53.947c-.026-.013-.053-.022-.08-.034a15.872,15.872,0,0,0,.818-3.964A4.651,4.651,0,0,0,43.3,41.977V32.55a7.885,7.885,0,0,0-3.474-6.505,6.229,6.229,0,0,0-6.037-4.625H20.843A12.763,12.763,0,0,0,8.094,34.169v7.808a4.651,4.651,0,0,0,1.664,7.972,15.98,15.98,0,0,0,6.43,11.626v3.916L4.471,69.007A6.235,6.235,0,0,0,0,75.016V90.829a1.417,1.417,0,0,0,1.417,1.417h.2v16.39a1.417,1.417,0,0,0,2.834,0V92.246h5.26v16.39a1.417,1.417,0,0,0,2.834,0V84.2a6.254,6.254,0,0,0-1.054-3.48L9.071,77.092a1.417,1.417,0,1,0-2.358,1.572L9.136,82.3A3.429,3.429,0,0,1,9.713,84.2v5.207H2.834v-14.4a3.418,3.418,0,0,1,2.451-3.295l4.864-1.459A15.989,15.989,0,0,0,33.276,80.623a4.65,4.65,0,0,0,3.755,1.909h.2v.2a12.755,12.755,0,0,0,6.475,11.092v2.311a.2.2,0,0,1-.138.192l-5.285,1.762A6.265,6.265,0,0,0,34,104.042v4.594a1.417,1.417,0,1,0,2.834,0v-4.594a3.435,3.435,0,0,1,2.352-3.263l1.554-.518a11.13,11.13,0,0,0,18.493,0l1.554.518a3.435,3.435,0,0,1,2.352,3.263v4.594a1.417,1.417,0,0,0,2.834,0v-4.594a6.265,6.265,0,0,0-4.29-5.951l-5.285-1.762a.2.2,0,0,1-.138-.192V93.826a12.8,12.8,0,0,0,6-7.648,14.366,14.366,0,0,0,24.068-5.513l5.409,2.163a3.423,3.423,0,0,1,2.162,3.194V92.65h-5.26V90.829a1.417,1.417,0,1,0-2.834,0v17.807a1.417,1.417,0,1,0,2.834,0V95.483h3.642v13.153a1.417,1.417,0,1,0,2.834,0V95.483h.2a1.417,1.417,0,0,0,1.417-1.417V86.022A6.242,6.242,0,0,0,92.783,80.2ZM56.256,47.12a16.39,16.39,0,1,1,32.781,0,186.031,186.031,0,0,0,1.518,22.005,30.333,30.333,0,0,1-10.016,3.862V70.733a15.864,15.864,0,0,0,2.151-1.461,15.95,15.95,0,0,0,5.944-12.439c0-8.009-5.792-9.158-11.393-10.27-3.564-.708-7.249-1.439-10.184-3.787a1.417,1.417,0,0,0-2.3,1.107c0,.038-.062,3.766-5.4,5.1a1.417,1.417,0,0,0,.687,2.749c4.47-1.117,6.293-3.625,7.037-5.509,3.073,1.821,6.515,2.5,9.612,3.119C82.675,50.531,85.8,51.4,85.8,56.833a13.116,13.116,0,0,1-4.891,10.235,13.15,13.15,0,0,1-15.916.459,16.01,16.01,0,0,0-3.879-5.979V55.214a1.417,1.417,0,0,0-2.051-1.267L56,55.477C56.17,52.526,56.256,49.72,56.256,47.12Zm2.023,10.387v5.128l-5.128-2.564Zm-16.592,0,5.128,2.564-5.128,2.564ZM34,73.021v1.346a4.655,4.655,0,0,0-1.619,3.511A13.153,13.153,0,0,1,12.87,69.446l3.5-1.05a9.508,9.508,0,0,0,17.763,2.539A15.932,15.932,0,0,0,34,73.021ZM19.022,66.544V63.261a15.965,15.965,0,0,0,13.355,0v3.284a6.677,6.677,0,0,1-13.354.018C19.023,66.557,19.022,66.55,19.022,66.544ZM25.7,61.891A13.167,13.167,0,0,1,12.547,48.739a1.417,1.417,0,0,0-1.417-1.417,1.821,1.821,0,1,1,0-3.642h3.238a1.417,1.417,0,0,0,1.344-.969l1.3-3.9c3.256-.073,13.35-.531,19.034-3.373A1.417,1.417,0,1,0,34.779,32.9c-6.1,3.049-18.667,3.088-18.793,3.088a1.417,1.417,0,0,0-1.344.969l-1.3,3.888H11.13c-.068,0-.135,0-.2.005V34.169a9.926,9.926,0,0,1,9.915-9.915H33.794a3.414,3.414,0,0,1,3.38,2.9,1.417,1.417,0,0,0,.7,1.012,5.058,5.058,0,0,1,2.594,4.385v8.3c-.067,0-.134-.005-.2-.005H38.651a1.417,1.417,0,1,0,0,2.834h1.619a1.821,1.821,0,0,1,0,3.642,1.417,1.417,0,0,0-1.417,1.417A13.168,13.168,0,0,1,25.7,61.891Zm9.511,4.655v-4.97a16.116,16.116,0,0,0,3.642-3.765v3.737A16.009,16.009,0,0,0,35.2,66.94C35.206,66.809,35.211,66.678,35.211,66.546ZM56.4,99.318a8.289,8.289,0,0,1-12.838,0l.9-.3a3.032,3.032,0,0,0,2.076-2.88V95.008a12.683,12.683,0,0,0,6.879,0v1.129a3.031,3.031,0,0,0,2.076,2.88ZM61.315,79.7A1.417,1.417,0,0,0,59.9,81.115v1.409c0,.012,0,.025,0,.037v.173a9.915,9.915,0,0,1-19.83,0V81.115A1.417,1.417,0,0,0,38.651,79.7H37.032a1.823,1.823,0,0,1-1.821-1.821,1.8,1.8,0,0,1,.915-1.564,1.408,1.408,0,0,0,.336-.275c3.5-.1,14.856-.761,22.319-5.025a1.417,1.417,0,0,0-1.406-2.46c-6.537,3.735-16.809,4.483-20.544,4.633v-.165a13.166,13.166,0,0,1,2.244-7.339,1.413,1.413,0,0,0,1.829.512l9.079-4.54,9.079,4.54a1.409,1.409,0,0,0,1.829-.512,13.166,13.166,0,0,1,2.244,7.339v2.068a1.416,1.416,0,0,0,.7,1.225,1.8,1.8,0,0,1,.915,1.564A1.823,1.823,0,0,1,62.933,79.7Zm11.332,8.094a11.549,11.549,0,0,1-9.681-5.261,4.642,4.642,0,0,0,3-8.165V73.021a15.932,15.932,0,0,0-.091-1.7,15.976,15.976,0,0,0,11.827.67v2.075a4.632,4.632,0,0,0,2.926,4.322l3.055,1.222A11.527,11.527,0,0,1,72.646,87.793Z" transform="translate(0 -21.42)" fill="#523a28"/>
  </g>
</svg>
