<svg xmlns="http://www.w3.org/2000/svg" width="90.299" height="82.909" viewBox="0 0 90.299 82.909">
  <g id="briefcase" transform="translate(0 -34.909)">
    <g id="Group_22" data-name="Group 22" transform="translate(2.176 80.727)">
      <g id="Group_21" data-name="Group 21">
        <path id="Path_9" data-name="Path 9" d="M95.538,279.273a2,2,0,0,0-2.046,2.182v28.363A2,2,0,0,1,91.445,312H17.776a2,2,0,0,1-2.046-2.182V281.455a2.051,2.051,0,1,0-4.093,0v28.363a6.238,6.238,0,0,0,6.139,6.545H91.445a6.238,6.238,0,0,0,6.139-6.545V281.455A2,2,0,0,0,95.538,279.273Z" transform="translate(-11.637 -279.273)" fill="#523a28"/>
      </g>
    </g>
    <g id="Group_24" data-name="Group 24" transform="translate(0 50.182)">
      <g id="Group_23" data-name="Group 23">
        <path id="Path_10" data-name="Path 10" d="M84.142,116.364H6.157A6.246,6.246,0,0,0,0,122.909v13.964A6.478,6.478,0,0,0,4.72,143.2l32.22,7.636v6.982A2,2,0,0,0,38.993,160H51.306a2,2,0,0,0,2.052-2.182v-6.982l32.22-7.636a6.478,6.478,0,0,0,4.72-6.327V122.909A6.246,6.246,0,0,0,84.142,116.364ZM49.254,155.636H41.045v-8.727h8.209Zm36.94-18.764a2.1,2.1,0,0,1-1.642,2.182l-31.194,7.418v-1.745a2,2,0,0,0-2.052-2.182H38.993a2,2,0,0,0-2.052,2.182v1.745L5.746,139.055A2.1,2.1,0,0,1,4.1,136.873V122.909a2,2,0,0,1,2.052-2.182H84.142a2,2,0,0,1,2.052,2.182Z" transform="translate(0 -116.364)" fill="#523a28"/>
      </g>
    </g>
    <g id="Group_26" data-name="Group 26" transform="translate(27.743 34.909)">
      <g id="Group_25" data-name="Group 25">
        <path id="Path_11" data-name="Path 11" d="M191.194,34.909H169.436a6.42,6.42,0,0,0-6.527,6.545v2.182a2.176,2.176,0,1,0,4.351,0V41.454a2.058,2.058,0,0,1,2.176-2.182h21.758a2.058,2.058,0,0,1,2.176,2.182v2.182a2.176,2.176,0,1,0,4.351,0V41.454A6.419,6.419,0,0,0,191.194,34.909Z" transform="translate(-162.909 -34.909)" fill="#523a28"/>
      </g>
    </g>
  </g>
</svg>
